<svg width="45" height="45" viewBox="0 0 45 45" fill="none" xmlns="http://www.w3.org/2000/svg">
<rect width="45" height="45" rx="4" fill="#171B21"/>
<path d="M23.1601 20.87C23.0601 20.86 22.9401 20.86 22.8301 20.87C20.4501 20.79 18.5601 18.84 18.5601 16.44C18.5601 13.99 20.5401 12 23.0001 12C25.4501 12 27.4401 13.99 27.4401 16.44C27.4301 18.84 25.5401 20.79 23.1601 20.87Z" stroke="white" stroke-width="1.5" stroke-linecap="round" stroke-linejoin="round"/>
<path d="M18.16 24.56C15.74 26.18 15.74 28.82 18.16 30.43C20.91 32.27 25.42 32.27 28.17 30.43C30.59 28.81 30.59 26.17 28.17 24.56C25.43 22.73 20.92 22.73 18.16 24.56Z" stroke="white" stroke-width="1.5" stroke-linecap="round" stroke-linejoin="round"/>
</svg>
