<svg width="43" height="25" viewBox="0 0 43 25" fill="none" xmlns="http://www.w3.org/2000/svg">
<g id="Logo">
<g id="Group">
<path id="Vector" d="M17.9019 11.4798H21.0502L14.4856 1.26079C10.8852 2.98607 8.23923 6.37028 7.55263 10.4015C7.48565 10.4015 7.43541 10.3849 7.36842 10.3849C3.29904 10.3849 0 13.653 0 17.6841C0 21.7153 3.29904 24.9834 7.36842 24.9834H19.5431C19.6938 24.9834 19.8278 25 19.9785 25C20.1962 25 20.4139 25 20.6316 24.9834H27.3301L17.9019 11.4798Z" fill="white"/>
<path id="Vector_2" d="M33.1402 7.29927C32.5875 7.29927 32.0517 7.34904 31.5158 7.44857C29.5564 3.06901 25.1354 0 19.9775 0C18.9727 0 18.0014 0.116125 17.0469 0.331785L26.2741 14.5654H23.1258L30.4607 24.9502H33.6258V24.9336C38.3148 24.6682 42.0325 20.8195 42.0325 16.1082C42.0493 11.2641 38.0636 7.29927 33.1402 7.29927Z" fill="white"/>
</g>
</g>
</svg>
