<svg width="30" height="18" viewBox="0 0 30 18" fill="none" xmlns="http://www.w3.org/2000/svg">
<g id="Group">
<path id="Vector" d="M12.7633 8.18456H15.0079L10.3276 0.898865C7.76066 2.12892 5.87422 4.54171 5.3847 7.41578C5.33695 7.41578 5.30113 7.40395 5.25337 7.40395C2.35208 7.40395 0 9.73395 0 12.608C0 15.4821 2.35208 17.8121 5.25337 17.8121H13.9334C14.0408 17.8121 14.1363 17.8239 14.2438 17.8239C14.399 17.8239 14.5542 17.8239 14.7094 17.8121H19.4852L12.7633 8.18456Z" fill="white"/>
<path id="Vector_2" d="M23.6275 5.20407C23.2335 5.20407 22.8515 5.23955 22.4694 5.31051C21.0725 2.18807 17.9205 0 14.2431 0C13.5267 0 12.8342 0.082792 12.1537 0.236548L18.7323 10.3845H16.4877L21.7172 17.7884H23.9738V17.7766C27.3168 17.5874 29.9674 14.8434 29.9674 11.4844C29.9793 8.03082 27.1377 5.20407 23.6275 5.20407Z" fill="white"/>
</g>
</svg>
