<svg xmlns="http://www.w3.org/2000/svg" width="16" height="16" viewBox="0 0 16 16" fill="none">
    <path fill-rule="evenodd" clip-rule="evenodd" d="M2.68687 2.68693C2.14704 3.22675 1.83331 4.07711 1.83331 5.33337V8.66671C1.83331 10.2903 2.16242 11.1028 2.66257 11.5404C3.17922 11.9925 4.00882 12.1667 5.33331 12.1667H5.66665C5.85519 12.1667 6.03862 12.2255 6.18289 12.2971C6.32533 12.3677 6.48644 12.4788 6.60174 12.6357L7.59998 13.9667C7.73942 14.1526 7.88912 14.2067 7.99998 14.2067C8.11084 14.2067 8.26054 14.1526 8.39998 13.9667L9.39998 12.6334L9.4019 12.6308C9.62168 12.3417 9.96803 12.1667 10.3333 12.1667H10.6666C11.9229 12.1667 12.7733 11.853 13.3131 11.3132C13.8529 10.7733 14.1666 9.92297 14.1666 8.66671V6.66671C14.1666 6.39056 14.3905 6.16671 14.6666 6.16671C14.9428 6.16671 15.1666 6.39056 15.1666 6.66671V8.66671C15.1666 10.0771 14.8137 11.2268 14.0202 12.0203C13.2267 12.8138 12.0771 13.1667 10.6666 13.1667H10.3333C10.2856 13.1667 10.2324 13.1914 10.1988 13.235C10.1985 13.2353 10.1983 13.2356 10.1981 13.2359L9.19998 14.5667C8.89942 14.9675 8.46912 15.2067 7.99998 15.2067C7.53084 15.2067 7.10054 14.9675 6.79998 14.5667L5.79915 13.2323C5.79767 13.2309 5.79467 13.2282 5.78978 13.2243C5.77772 13.215 5.76023 13.2037 5.73874 13.193C5.7173 13.1824 5.69686 13.1749 5.68046 13.1704C5.67081 13.1678 5.66508 13.167 5.66328 13.1667H5.33331C3.99114 13.1667 2.82074 13.0076 2.00406 12.293C1.17087 11.564 0.833313 10.3765 0.833313 8.66671V5.33337C0.833313 3.92297 1.18625 2.77333 1.97976 1.97982C2.77327 1.18631 3.92291 0.833374 5.33331 0.833374H9.33331C9.60945 0.833374 9.83331 1.05723 9.83331 1.33337C9.83331 1.60952 9.60945 1.83337 9.33331 1.83337H5.33331C4.07705 1.83337 3.22669 2.1471 2.68687 2.68693Z" fill="#C4AC7C"/>
    <path fill-rule="evenodd" clip-rule="evenodd" d="M13 1.83337C12.3556 1.83337 11.8333 2.35571 11.8333 3.00004C11.8333 3.64437 12.3556 4.16671 13 4.16671C13.6443 4.16671 14.1666 3.64437 14.1666 3.00004C14.1666 2.35571 13.6443 1.83337 13 1.83337ZM10.8333 3.00004C10.8333 1.80342 11.8034 0.833374 13 0.833374C14.1966 0.833374 15.1666 1.80342 15.1666 3.00004C15.1666 4.19666 14.1966 5.16671 13 5.16671C11.8034 5.16671 10.8333 4.19666 10.8333 3.00004Z" fill="#C4AC7C"/>
    <path fill-rule="evenodd" clip-rule="evenodd" d="M9.99762 7.33341C9.99762 6.96522 10.2961 6.66675 10.6643 6.66675H10.6703C11.0385 6.66675 11.3369 6.96522 11.3369 7.33341C11.3369 7.7016 11.0385 8.00008 10.6703 8.00008H10.6643C10.2961 8.00008 9.99762 7.7016 9.99762 7.33341Z" fill="#C4AC7C"/>
    <path fill-rule="evenodd" clip-rule="evenodd" d="M7.33032 7.33341C7.33032 6.96522 7.6288 6.66675 7.99699 6.66675H8.00298C8.37117 6.66675 8.66964 6.96522 8.66964 7.33341C8.66964 7.7016 8.37117 8.00008 8.00298 8.00008H7.99699C7.6288 8.00008 7.33032 7.7016 7.33032 7.33341Z" fill="#C4AC7C"/>
    <path fill-rule="evenodd" clip-rule="evenodd" d="M4.66296 7.33341C4.66296 6.96522 4.96144 6.66675 5.32963 6.66675H5.33562C5.70381 6.66675 6.00229 6.96522 6.00229 7.33341C6.00229 7.7016 5.70381 8.00008 5.33562 8.00008H5.32963C4.96144 8.00008 4.66296 7.7016 4.66296 7.33341Z" fill="#C4AC7C"/>
</svg>
