<svg xmlns="http://www.w3.org/2000/svg" width="12" height="16" viewBox="0 0 12 16" fill="none">
    <path fill-rule="evenodd" clip-rule="evenodd" d="M8.22907 1.48599C8.331 1.73268 8.37332 2.02782 8.37332 2.34672V6.64672H9.93332C10.4627 6.64672 11.0338 6.80868 11.264 7.31843C11.4943 7.8284 11.2376 8.36292 10.8881 8.75769C10.8879 8.75788 10.8878 8.75806 10.8876 8.75824L5.84197 14.4904C5.63128 14.7296 5.40447 14.9232 5.16521 15.0412C4.92384 15.1602 4.63078 15.219 4.34008 15.1098C4.04911 15.0006 3.86717 14.7632 3.76424 14.5141C3.6623 14.2674 3.61999 13.9723 3.61999 13.6534V9.35339H2.05999C1.53432 9.35339 0.965078 9.19336 0.734578 8.6848C0.504583 8.17735 0.757434 7.64309 1.10238 7.24565L1.10466 7.24302L6.15134 1.50969C6.36202 1.27054 6.58884 1.07692 6.82809 0.958923C7.06947 0.839875 7.36252 0.781156 7.65322 0.890292C7.9442 0.999532 8.12613 1.23688 8.22907 1.48599ZM6.90197 2.17042C7.06122 1.98968 7.18782 1.89651 7.27042 1.85578C7.27949 1.8513 7.28751 1.84768 7.29453 1.84477C7.29772 1.85133 7.30119 1.85899 7.30486 1.86788C7.3398 1.95244 7.37332 2.10563 7.37332 2.34672V7.14672C7.37332 7.42287 7.59718 7.64672 7.87332 7.64672H9.93332C10.1213 7.64672 10.2397 7.67633 10.3045 7.70515C10.3288 7.71594 10.3427 7.72512 10.3502 7.73104C10.3496 7.74037 10.3473 7.75653 10.3395 7.78122C10.3185 7.84812 10.2627 7.95554 10.139 8.09521L10.138 8.09636L5.09147 13.8295C4.93216 14.0104 4.8055 14.1036 4.72288 14.1443C4.71381 14.1488 4.7058 14.1524 4.69878 14.1553C4.69558 14.1488 4.69212 14.1411 4.68844 14.1322C4.6535 14.0477 4.61999 13.8945 4.61999 13.6534V8.85339C4.61999 8.57725 4.39613 8.35339 4.11999 8.35339H2.05999C1.8734 8.35339 1.75614 8.32412 1.69213 8.29572C1.66867 8.28532 1.65509 8.27647 1.64777 8.27072C1.6482 8.26119 1.65046 8.24458 1.65834 8.21906C1.67925 8.15136 1.73446 8.04326 1.85654 7.90234L6.90197 2.17042C6.90201 2.17037 6.90192 2.17047 6.90197 2.17042Z" fill="#C4AC7C"/>
</svg>
