<svg xmlns="http://www.w3.org/2000/svg" width="12" height="16" viewBox="0 0 12 16" fill="none">
    <path fill-rule="evenodd" clip-rule="evenodd" d="M5.99917 1.79663C5.97281 1.79663 5.89667 1.809 5.80962 1.93336L5.80693 1.9372L3.026 5.83178C2.89259 6.0174 2.89474 6.11041 2.89813 6.13356C2.91481 6.14968 2.9895 6.20663 3.21999 6.20663H8.78001C9.00708 6.20663 9.08242 6.15144 9.10009 6.13486C9.10312 6.11049 9.10278 6.01756 8.96933 5.83455L8.9664 5.83053L6.18643 1.93718L6.18098 1.9294C6.09772 1.80798 6.02465 1.79663 5.99917 1.79663ZM7.00274 1.35956C6.76596 1.01677 6.40699 0.796631 5.99917 0.796631C5.59137 0.796631 5.23148 1.01669 4.99186 1.3578L2.21399 5.24814C2.21382 5.24838 2.21365 5.24861 2.21348 5.24885C1.93204 5.64076 1.7753 6.14107 2.00811 6.59248C2.24057 7.0432 2.73862 7.20663 3.21999 7.20663H8.78001C9.26072 7.20663 9.76023 7.04349 9.99176 6.59109C10.2235 6.1383 10.063 5.63822 9.7789 5.24752L7.00274 1.35956Z" fill="#C4AC7C"/>
    <path fill-rule="evenodd" clip-rule="evenodd" d="M3.73924 6.41687C3.83303 6.28499 3.98486 6.20667 4.14669 6.20667H7.86003C8.02186 6.20667 8.17369 6.28499 8.26748 6.41687L10.9261 10.1549C11.2859 10.6511 11.4637 11.2479 11.1959 11.7711C10.9281 12.2944 10.3393 12.5 9.72669 12.5H2.28003C1.6674 12.5 1.07859 12.2944 0.810777 11.7711C0.542966 11.2479 0.720858 10.6511 1.08063 10.1549L3.73924 6.41687ZM4.40464 7.20667L1.89122 10.7406C1.63204 11.0973 1.68082 11.2762 1.70095 11.3155C1.72148 11.3556 1.83933 11.5 2.28003 11.5H9.72669C10.1674 11.5 10.2852 11.3556 10.3058 11.3155C10.3259 11.2762 10.3747 11.0973 10.1155 10.7406L10.1125 10.7365L7.60208 7.20667H4.40464Z" fill="#C4AC7C"/>
    <path fill-rule="evenodd" clip-rule="evenodd" d="M6 11.5C6.27614 11.5 6.5 11.7239 6.5 12V14.6667C6.5 14.9428 6.27614 15.1667 6 15.1667C5.72386 15.1667 5.5 14.9428 5.5 14.6667V12C5.5 11.7239 5.72386 11.5 6 11.5Z" fill="#C4AC7C"/>
</svg>
