<svg width="175" height="25" viewBox="0 0 175 25" fill="none" xmlns="http://www.w3.org/2000/svg">
<g clip-path="url(#clip0_23_310)">
<path d="M17.9019 11.4797H21.0502L14.4856 1.26074C10.8852 2.98602 8.23923 6.37023 7.55263 10.4014C7.48565 10.4014 7.43541 10.3848 7.36842 10.3848C3.29904 10.3848 0 13.6529 0 17.6841C0 21.7153 3.29904 24.9834 7.36842 24.9834H19.5431C19.6938 24.9834 19.8278 25 19.9785 25C20.1962 25 20.4139 25 20.6316 24.9834H27.3301L17.9019 11.4797Z" fill="white"/>
<path d="M33.1402 7.29927C32.5875 7.29927 32.0517 7.34904 31.5158 7.44857C29.5564 3.06901 25.1354 0 19.9775 0C18.9727 0 18.0014 0.116125 17.0469 0.331785L26.2741 14.5654H23.1258L30.4607 24.9502H33.6258V24.9336C38.3148 24.6682 42.0325 20.8195 42.0325 16.1082C42.0493 11.2641 38.0636 7.29927 33.1402 7.29927Z" fill="white"/>
<path d="M54.6606 19.26C54.6606 18.7458 54.4764 18.3642 54.1079 18.0822C53.7395 17.8168 53.0864 17.5182 52.1486 17.2195C51.1941 16.9209 50.4572 16.6223 49.9046 16.3237C48.3974 15.5109 47.6438 14.4325 47.6438 13.0722C47.6438 12.3589 47.8448 11.7285 48.2467 11.1811C48.6486 10.617 49.2347 10.1857 49.9883 9.8705C50.7419 9.55531 51.596 9.40601 52.5338 9.40601C53.4716 9.40601 54.3256 9.5719 55.0625 9.92027C55.7993 10.2521 56.3854 10.7331 56.7874 11.3635C57.1893 11.9773 57.407 12.6907 57.407 13.4704H54.6773C54.6773 12.8732 54.4931 12.4087 54.1079 12.0603C53.7228 11.7285 53.1869 11.5626 52.5003 11.5626C51.8137 11.5626 51.3113 11.6953 50.9429 11.9773C50.5744 12.2594 50.3902 12.6243 50.3902 13.0888C50.3902 13.5201 50.6079 13.8685 51.0433 14.1671C51.4787 14.4491 52.1151 14.7312 52.9524 14.98C54.5098 15.4445 55.6319 16.0251 56.3519 16.7053C57.0553 17.3854 57.4237 18.2481 57.4237 19.26C57.4237 20.4047 56.9883 21.2839 56.1175 21.9309C55.2467 22.5779 54.0744 22.8931 52.6175 22.8931C51.596 22.8931 50.6749 22.7106 49.8376 22.3456C49.0003 21.9807 48.3639 21.4664 47.9285 20.8194C47.4931 20.1724 47.2754 19.4259 47.2754 18.5799H50.0218C50.0218 20.0231 50.8926 20.7531 52.651 20.7531C53.3041 20.7531 53.8065 20.6203 54.1749 20.3549C54.4763 20.0895 54.6606 19.7245 54.6606 19.26Z" fill="white"/>
<path d="M63.1339 22.8766C61.6603 22.8766 60.4545 22.4287 59.5167 21.5329C58.5957 20.637 58.1268 19.4426 58.1268 17.9496V17.6842C58.1268 16.6888 58.3277 15.7764 58.7129 14.9967C59.0981 14.2004 59.6507 13.6032 60.3708 13.1719C61.0909 12.7406 61.9115 12.5249 62.8325 12.5249C64.2057 12.5249 65.2942 12.9562 66.0813 13.8189C66.8684 14.6815 67.2703 15.9091 67.2703 17.4851V18.58H60.8564C60.9402 19.227 61.2081 19.7578 61.6435 20.156C62.0789 20.5541 62.6316 20.7532 63.3014 20.7532C64.3397 20.7532 65.1435 20.3882 65.7296 19.6417L67.0526 21.1015C66.6507 21.6656 66.0981 22.1135 65.4115 22.4287C64.7249 22.7273 63.9713 22.8766 63.1339 22.8766ZM62.8158 14.6815C62.2799 14.6815 61.8445 14.864 61.5095 15.2124C61.1746 15.5773 60.9569 16.0916 60.8732 16.7552H64.6244V16.5395C64.6076 15.9423 64.4569 15.4944 64.1387 15.1626C63.8373 14.8474 63.4019 14.6815 62.8158 14.6815Z" fill="white"/>
<path d="M73.6675 15.4279C73.299 15.3782 72.9808 15.3616 72.6962 15.3616C71.6746 15.3616 71.0048 15.71 70.6866 16.3901V22.9263H67.9904V12.9396H70.5359L70.6029 14.134C71.1387 13.2216 71.8923 12.7571 72.8469 12.7571C73.1483 12.7571 73.4163 12.7903 73.6842 12.8732L73.6675 15.4279Z" fill="white"/>
<path d="M78.8081 19.6417L80.6837 12.9065H83.4971L80.0976 22.8932H77.5187L74.1191 12.9231H76.9325L78.8081 19.6417Z" fill="white"/>
<path d="M88.4546 22.8766C86.9809 22.8766 85.7751 22.4287 84.8373 21.5329C83.9163 20.637 83.4474 19.4426 83.4474 17.9496V17.6842C83.4474 16.6888 83.6483 15.7764 84.0335 14.9967C84.4187 14.2004 84.9713 13.6032 85.6914 13.1719C86.4115 12.7406 87.2321 12.5249 88.1531 12.5249C89.5263 12.5249 90.6149 12.9562 91.4019 13.8189C92.189 14.6815 92.5909 15.9091 92.5909 17.4851V18.58H86.1771C86.2608 19.227 86.5287 19.7578 86.9641 20.156C87.3995 20.5541 87.9522 20.7532 88.622 20.7532C89.6603 20.7532 90.4641 20.3882 91.0503 19.6417L92.3732 21.1015C91.9713 21.6656 91.4187 22.1135 90.7321 22.4287C90.0455 22.7273 89.2919 22.8766 88.4546 22.8766ZM88.1364 14.6815C87.6005 14.6815 87.1651 14.864 86.8302 15.2124C86.4952 15.5773 86.2775 16.0916 86.1938 16.7552H89.945V16.5395C89.9282 15.9423 89.7775 15.4944 89.4594 15.1626C89.1579 14.8474 88.7058 14.6815 88.1364 14.6815Z" fill="white"/>
<path d="M99.1887 15.4279C98.8203 15.3782 98.5021 15.3616 98.2175 15.3616C97.1959 15.3616 96.5261 15.71 96.2079 16.3901V22.9263H93.5117V12.9396H96.0572L96.1242 14.134C96.66 13.2216 97.4136 12.7571 98.3682 12.7571C98.6696 12.7571 98.9376 12.7903 99.2055 12.8732L99.1887 15.4279Z" fill="white"/>
<path d="M103.074 22.9096H100.428V9.3894H103.074V22.9096Z" fill="white"/>
<path d="M109.304 22.8932C107.83 22.8932 106.608 22.4453 105.687 21.5494C104.749 20.6536 104.297 19.4426 104.297 17.9496V17.6841C104.297 16.6722 104.498 15.7764 104.883 14.9801C105.268 14.1838 105.837 13.57 106.557 13.1553C107.277 12.724 108.098 12.5083 109.019 12.5083C110.409 12.5083 111.481 12.9396 112.285 13.8023C113.072 14.6649 113.474 15.8925 113.474 17.4685V18.5634H107.043C107.127 19.2104 107.395 19.7412 107.83 20.1394C108.266 20.5375 108.818 20.7366 109.505 20.7366C110.543 20.7366 111.364 20.3716 111.95 19.6251L113.273 21.1015C112.871 21.6656 112.318 22.1135 111.632 22.4287C110.911 22.7273 110.141 22.8932 109.304 22.8932ZM109.002 14.6649C108.466 14.6649 108.031 14.8474 107.696 15.1958C107.361 15.5607 107.144 16.075 107.06 16.7386H110.811V16.5229C110.794 15.9257 110.644 15.4612 110.325 15.146C110.007 14.8308 109.572 14.6649 109.002 14.6649Z" fill="white"/>
<path d="M120.089 19.9403C120.089 19.6085 119.921 19.3597 119.603 19.1606C119.268 18.9781 118.749 18.8122 118.029 18.6629C115.634 18.1652 114.428 17.1533 114.428 15.6271C114.428 14.7313 114.797 14.0013 115.55 13.4041C116.287 12.8069 117.275 12.5083 118.464 12.5083C119.754 12.5083 120.775 12.8069 121.545 13.4041C122.316 14.0013 122.701 14.781 122.701 15.7432H120.005C120.005 15.3617 119.888 15.0465 119.636 14.7976C119.385 14.5488 119 14.4161 118.464 14.4161C118.012 14.4161 117.66 14.5156 117.409 14.7147C117.158 14.9137 117.041 15.1792 117.041 15.4944C117.041 15.793 117.175 16.0252 117.459 16.2077C117.744 16.3902 118.213 16.5395 118.9 16.6722C119.586 16.8049 120.139 16.9542 120.591 17.1201C122.014 17.6344 122.734 18.5302 122.734 19.8076C122.734 20.72 122.333 21.4665 121.545 22.0305C120.758 22.5946 119.737 22.8766 118.481 22.8766C117.627 22.8766 116.89 22.7273 116.22 22.4287C115.567 22.1301 115.048 21.7153 114.679 21.2011C114.311 20.6868 114.127 20.1228 114.127 19.509H116.656C116.672 19.9901 116.856 20.355 117.191 20.6039C117.526 20.8527 117.962 20.9854 118.514 20.9854C119.034 20.9854 119.419 20.8859 119.687 20.6868C119.955 20.5043 120.089 20.2555 120.089 19.9403Z" fill="white"/>
<path d="M129.534 19.9403C129.534 19.6085 129.367 19.3597 129.048 19.1606C128.713 18.9781 128.194 18.8122 127.474 18.6629C125.079 18.1652 123.874 17.1533 123.874 15.6271C123.874 14.7313 124.242 14.0013 124.996 13.4041C125.733 12.8069 126.721 12.5083 127.91 12.5083C129.199 12.5083 130.221 12.8069 130.991 13.4041C131.761 14.0013 132.146 14.781 132.146 15.7432H129.45C129.45 15.3617 129.333 15.0465 129.082 14.7976C128.831 14.5488 128.445 14.4161 127.91 14.4161C127.457 14.4161 127.106 14.5156 126.855 14.7147C126.603 14.9137 126.486 15.1792 126.486 15.4944C126.486 15.793 126.62 16.0252 126.905 16.2077C127.189 16.3902 127.658 16.5395 128.345 16.6722C129.032 16.8049 129.584 16.9542 130.036 17.1201C131.46 17.6344 132.18 18.5302 132.18 19.8076C132.18 20.72 131.778 21.4665 130.991 22.0305C130.204 22.5946 129.182 22.8766 127.926 22.8766C127.072 22.8766 126.335 22.7273 125.666 22.4287C125.012 22.1301 124.493 21.7153 124.125 21.2011C123.756 20.6868 123.572 20.1228 123.572 19.509H126.134C126.151 19.9901 126.335 20.355 126.67 20.6039C127.005 20.8527 127.441 20.9854 127.993 20.9854C128.512 20.9854 128.898 20.8859 129.166 20.6868C129.4 20.5043 129.534 20.2555 129.534 19.9403Z" fill="white"/>
<path d="M147.721 21.0516C147.235 21.6323 146.532 22.0802 145.627 22.412C144.723 22.7272 143.735 22.8931 142.646 22.8931C141.491 22.8931 140.486 22.6442 139.632 22.1465C138.761 21.6489 138.091 20.9355 137.622 19.9899C137.154 19.0443 136.902 17.9329 136.902 16.6555V15.7597C136.902 14.4491 137.12 13.3211 137.572 12.3589C138.024 11.3967 138.661 10.6668 139.498 10.1525C140.335 9.63824 141.323 9.3894 142.445 9.3894C144.02 9.3894 145.242 9.75437 146.13 10.5009C147.017 11.2474 147.536 12.3257 147.704 13.7358H145.041C144.924 12.9893 144.656 12.4418 144.237 12.0769C143.819 11.7285 143.249 11.546 142.529 11.546C141.608 11.546 140.888 11.8944 140.402 12.5911C139.917 13.2879 139.666 14.3164 139.666 15.6767V16.5228C139.666 17.8997 139.933 18.9448 140.453 19.6416C140.988 20.3383 141.759 20.7033 142.78 20.7033C143.802 20.7033 144.539 20.4876 144.974 20.0563V17.8002H142.496V15.8094H147.721V21.0516Z" fill="white"/>
<path d="M155.441 21.682C154.771 22.4783 153.85 22.8931 152.677 22.8931C151.589 22.8931 150.768 22.5779 150.199 21.9641C149.63 21.3502 149.345 20.4378 149.328 19.26V12.6907H152.024V19.1605C152.024 20.2056 152.51 20.7199 153.464 20.7199C154.419 20.7199 155.005 20.4047 155.357 19.7743V12.6741H158.07V22.694H155.524L155.441 21.682Z" fill="white"/>
<path d="M165.388 15.1958C165.02 15.146 164.701 15.1294 164.417 15.1294C163.395 15.1294 162.725 15.4778 162.407 16.1579V22.7107H159.711V12.6908H162.256L162.323 13.8852C162.859 12.9728 163.613 12.5083 164.567 12.5083C164.869 12.5083 165.154 12.5415 165.405 12.6244L165.388 15.1958Z" fill="white"/>
<path d="M172.37 21.682C171.7 22.4783 170.779 22.8931 169.607 22.8931C168.519 22.8931 167.698 22.5779 167.129 21.9641C166.559 21.3502 166.275 20.4378 166.258 19.26V12.6907H168.954V19.1605C168.954 20.2056 169.44 20.7199 170.394 20.7199C171.349 20.7199 171.935 20.4047 172.287 19.7743V12.6741H174.999V22.694H172.454L172.37 21.682Z" fill="white"/>
</g>
<defs>
<clipPath id="clip0_23_310">
<rect width="175" height="25" fill="white"/>
</clipPath>
</defs>
</svg>
